<?xml version="1.0" encoding="UTF-8" standalone="no"?>
<svg width="164px" height="122px" viewBox="0 0 164 122" version="1.1" xmlns="http://www.w3.org/2000/svg" xmlns:xlink="http://www.w3.org/1999/xlink">
    <!-- Generator: Sketch 3.7.1 (28215) - http://www.bohemiancoding.com/sketch -->
    <title>today</title>
    <desc>Created with Sketch.</desc>
    <defs>
        <rect id="path-1" x="2" y="28" width="160" height="91"></rect>
        <mask id="mask-2" maskContentUnits="userSpaceOnUse" maskUnits="objectBoundingBox" x="0" y="0" width="160" height="91" fill="white">
            <use xlink:href="#path-1"></use>
        </mask>
        <rect id="path-3" x="70" y="66" width="24" height="18"></rect>
        <mask id="mask-4" maskContentUnits="userSpaceOnUse" maskUnits="objectBoundingBox" x="0" y="0" width="24" height="18" fill="white">
            <use xlink:href="#path-3"></use>
        </mask>
        <path d="M146,9 L156.00674,9 C160.421295,9 164,12.5838751 164,17.0098166 C164,17.0098166 164,121 164,121 C164,121 -9.72805436e-09,121 -2.28039809e-13,121 C9.72759828e-09,121 6.52893765e-10,17.0098166 6.52893765e-10,17.0098166 C2.92184552e-10,12.586117 3.57789248,9 7.99326036,9 L19,9 L19,1.99742191 C19,0.894276248 19.8982606,0 20.9979131,0 L23.0020869,0 C24.1055038,0 25,0.890925393 25,1.99742191 L25,9 L140,9 L140,1.99742191 C140,0.894276248 140.898261,0 141.997913,0 L144.002087,0 C145.105504,0 146,0.890925393 146,1.99742191 L146,9 Z" id="path-5"></path>
        <mask id="mask-6" maskContentUnits="userSpaceOnUse" maskUnits="objectBoundingBox" x="0" y="0" width="164" height="121" fill="white">
            <use xlink:href="#path-5"></use>
        </mask>
        <path d="M2,12.9942021 C2,11.3405499 3.35058409,10 4.99927538,10 L158.000725,10 C159.657179,10 161,11.343312 161,12.9942021 C161,12.9942021 161,30 161,30 C161,30 153.352001,30 141.410699,30 L2,30 C2,30 2,12.9942021 2,12.9942021 Z" id="path-7"></path>
        <mask id="mask-8" maskContentUnits="userSpaceOnUse" maskUnits="objectBoundingBox" x="0" y="0" width="159" height="20" fill="white">
            <use xlink:href="#path-7"></use>
        </mask>
    </defs>
    <g id="Page-1" stroke="none" stroke-width="1" fill="none" fill-rule="evenodd">
        <g id="today" transform="translate(-51.000000, -24.000000)">
            <g transform="translate(51.000000, 24.000000)">
                <use id="Rectangle-9" stroke="#979797" mask="url(#mask-2)" stroke-width="2" fill-opacity="0.5" fill="#D8D8D8" xlink:href="#path-1"></use>
                <use id="Rectangle-10" stroke="#979797" mask="url(#mask-4)" stroke-width="2" fill="#323436" xlink:href="#path-3"></use>
                <use id="Combined-Shape" stroke="#FFFFFF" mask="url(#mask-6)" stroke-width="6" xlink:href="#path-5"></use>
                <g id="Horizontal-lines" transform="translate(0.000000, 29.000000)" stroke="#FFFFFF" stroke-width="2">
                    <path d="M0.159999847,1 L163.460007,1 L0.159999847,1 Z" id="Path-1"></path>
                    <path d="M0.159999847,19 L163.460007,19 L0.159999847,19 Z" id="Path-1-Copy"></path>
                    <path d="M0.159999847,37 L163.460007,37 L0.159999847,37 Z" id="Path-1-Copy-2"></path>
                    <path d="M0.159999847,55 L163.460007,55 L0.159999847,55 Z" id="Path-1-Copy-3"></path>
                    <path d="M0.159999847,73 L163.460007,73 L0.159999847,73 Z" id="Path-1-Copy-4"></path>
                </g>
                <g id="Vertical-lines" transform="translate(21.000000, 30.000000)" stroke="#FFFFFF" stroke-width="2" stroke-linecap="square">
                    <path d="M1,0.5 L1,90.0223465" id="Line"></path>
                    <path d="M25,0.408256881 L25,88.5955244" id="Line-Copy"></path>
                    <path d="M49,0.408256881 L49,88.5955244" id="Line-Copy-2"></path>
                    <path d="M73,0.408256881 L73,88.5955244" id="Line-Copy-3"></path>
                    <path d="M97,0.408256881 L97,88.5955244" id="Line-Copy-4"></path>
                    <path d="M121,0.408256881 L121,88.5955244" id="Line-Copy-5"></path>
                </g>
                <g id="Bindings" transform="translate(19.000000, 0.000000)"></g>
                <g id="Direction-indidcator" transform="translate(75.000000, 68.000000)" fill="#F68657">
                    <path d="M7,14 C10.8659932,14 14,10.8659932 14,7 C14,3.13400675 10.8659932,0 7,0 C3.13400675,0 0,3.13400675 0,7 C0,10.8659932 3.13400675,14 7,14 Z M12,4.8305275 C12,5.00261878 11.9397849,5.14889637 11.8193548,5.26936027 L7.1483871,9.94163861 L6.27096774,10.8193042 C6.15053763,10.9397681 6.00430108,11 5.83225806,11 C5.66021505,11 5.5139785,10.9397681 5.39354839,10.8193042 L4.51612903,9.94163861 L2.18064516,7.60549944 C2.06021505,7.48503554 2,7.33875795 2,7.16666667 C2,6.99457538 2.06021505,6.84829779 2.18064516,6.72783389 L3.05806452,5.85016835 C3.17849463,5.72970445 3.32473118,5.6694725 3.49677419,5.6694725 C3.66881721,5.6694725 3.81505376,5.72970445 3.93548387,5.85016835 L5.83225806,7.75392817 L10.0645161,3.51402918 C10.1849462,3.39356528 10.3311828,3.33333333 10.5032258,3.33333333 C10.6752688,3.33333333 10.8215054,3.39356528 10.9419355,3.51402918 L11.8193548,4.39169473 C11.9397849,4.51215863 12,4.65843621 12,4.8305275 Z" id="Combined-Shape"></path>
                </g>
                <use id="Rectangle-4" stroke="#FFFFFF" mask="url(#mask-8)" stroke-width="6" fill="#FFFFFF" xlink:href="#path-7"></use>
                <g id="fontawesome-webfont-f-00-c" transform="translate(75.000000, 71.000000)"></g>
            </g>
        </g>
    </g>
</svg>