<?xml version="1.0" encoding="UTF-8" standalone="no"?>
<svg width="164px" height="122px" viewBox="0 0 164 122" version="1.1" xmlns="http://www.w3.org/2000/svg" xmlns:xlink="http://www.w3.org/1999/xlink">
    <!-- Generator: Sketch 3.7.1 (28215) - http://www.bohemiancoding.com/sketch -->
    <title>yesterday</title>
    <desc>Created with Sketch.</desc>
    <defs>
        <path d="M146,9 L156.00674,9 C160.421295,9 164,12.5838751 164,17.0098166 C164,17.0098166 164,121 164,121 C164,121 -9.72799752e-09,121 -1.7119639e-13,121 C9.72765513e-09,121 6.52950608e-10,17.0098166 6.52950608e-10,17.0098166 C2.92241396e-10,12.586117 3.57789248,9 7.99326036,9 L19,9 L19,1.99742191 C19,0.894276248 19.8982606,0 20.9979131,0 L23.0020869,0 C24.1055038,0 25,0.890925393 25,1.99742191 L25,9 L140,9 L140,1.99742191 C140,0.894276248 140.898261,0 141.997913,0 L144.002087,0 C145.105504,0 146,0.890925393 146,1.99742191 L146,9 Z" id="path-1"></path>
        <mask id="mask-2" maskContentUnits="userSpaceOnUse" maskUnits="objectBoundingBox" x="0" y="0" width="164" height="121" fill="white">
            <use xlink:href="#path-1"></use>
        </mask>
        <path d="M2,12.9942021 C2,11.3405499 3.33515149,10 5.00060948,10 L158.999391,10 C160.656581,10 162,11.343312 162,12.9942021 C162,12.9942021 162,30 162,30 C162,30 154.303901,30 142.287496,30 L2,30 C2,30 2,12.9942021 2,12.9942021 Z" id="path-3"></path>
        <mask id="mask-4" maskContentUnits="userSpaceOnUse" maskUnits="objectBoundingBox" x="0" y="0" width="160" height="20" fill="white">
            <use xlink:href="#path-3"></use>
        </mask>
    </defs>
    <g id="Page-1" stroke="none" stroke-width="1" fill="none" fill-rule="evenodd">
        <g id="yesterday" transform="translate(-51.000000, -24.000000)">
            <g transform="translate(51.000000, 24.000000)">
                <g id="Hatch-groups" transform="translate(0.000000, 30.000000)" stroke-linecap="square" stroke="#F77A47" stroke-width="0.5">
                    <g id="Cross-hatching" transform="translate(46.000000, 36.000000)">
                        <path d="M0.5,2.5 L2.5,0.5" id="Line"></path>
                        <path d="M1,4 L5,0" id="Line-Copy-6"></path>
                        <path d="M1,6 L6,1" id="Line-Copy-7"></path>
                        <path d="M1,8 L8,1" id="Line-Copy-8"></path>
                        <path d="M1,10 L10,1" id="Line-Copy-9"></path>
                        <path d="M1,12 L12,1" id="Line-Copy-10"></path>
                        <path d="M1,14 L14,1" id="Line-Copy-11"></path>
                        <path d="M1,16 L16,1" id="Line-Copy-12"></path>
                        <path d="M1.49242598,17.5075741 L18,1" id="Line-Copy-13"></path>
                        <path d="M2.99999976,18 L20.0475111,0.952488422" id="Line-Copy-14"></path>
                        <path d="M6,17 L22,1" id="Line-Copy-15"></path>
                        <path d="M11.5,13.5 L13.5,11.5" id="Line-Copy-16"></path>
                        <path d="M8,17 L23,2" id="Line-Copy-17"></path>
                        <path d="M10,17 L23,4" id="Line-Copy-18"></path>
                        <path d="M12,17 L23,6" id="Line-Copy-19"></path>
                        <path d="M14,17 L24,7" id="Line-Copy-20"></path>
                        <path d="M15.5,17.5 L24.5138779,8.4861218" id="Line-Copy-21"></path>
                        <path d="M18,17 L24,11" id="Line-Copy-22"></path>
                        <path d="M19,18 L24,13" id="Line-Copy-26"></path>
                        <path d="M21,18 L24,15" id="Line-Copy-27"></path>
                    </g>
                    <g id="Cross-hatching-Copy-7" transform="translate(47.000000, 18.000000)">
                        <path d="M0,3 L2.5,0.5" id="Line"></path>
                        <path d="M0,5 L5,0" id="Line-Copy-6"></path>
                        <path d="M0,7 L6,1" id="Line-Copy-7"></path>
                        <path d="M0,9 L8,1" id="Line-Copy-8"></path>
                        <path d="M0,11 L10,1" id="Line-Copy-9"></path>
                        <path d="M0,13 L12,1" id="Line-Copy-10"></path>
                        <path d="M0,15 L14,1" id="Line-Copy-11"></path>
                        <path d="M0,17 L16,1" id="Line-Copy-12"></path>
                        <path d="M1.49242598,17.5075741 L18,1" id="Line-Copy-13"></path>
                        <path d="M2.99999976,18 L20.0475111,0.952488422" id="Line-Copy-14"></path>
                        <path d="M6,17 L22,1" id="Line-Copy-15"></path>
                        <path d="M11.5,13.5 L13.5,11.5" id="Line-Copy-16"></path>
                        <path d="M8,17 L23,2" id="Line-Copy-17"></path>
                        <path d="M10,17 L23,4" id="Line-Copy-18"></path>
                        <path d="M12,17 L23,6" id="Line-Copy-19"></path>
                        <path d="M14,17 L23,8" id="Line-Copy-20"></path>
                        <path d="M15.5,17.5 L23,10" id="Line-Copy-21"></path>
                        <path d="M18,17 L22.5276928,12.4723074" id="Line-Copy-22"></path>
                        <path d="M19,18 L23,14" id="Line-Copy-26"></path>
                        <path d="M21,18 L23,16" id="Line-Copy-27"></path>
                    </g>
                    <g id="Cross-hatching-Copy-8" transform="translate(47.000000, 0.000000)">
                        <path d="M0,3 L2.5,0.5" id="Line"></path>
                        <path d="M0,5 L5,0" id="Line-Copy-6"></path>
                        <path d="M0,7 L6,1" id="Line-Copy-7"></path>
                        <path d="M0,9 L8,1" id="Line-Copy-8"></path>
                        <path d="M0,11 L10,1" id="Line-Copy-9"></path>
                        <path d="M0,13 L12,1" id="Line-Copy-10"></path>
                        <path d="M0,15 L14,1" id="Line-Copy-11"></path>
                        <path d="M0,17 L16,1" id="Line-Copy-12"></path>
                        <path d="M1.49242598,17.5075741 L18,1" id="Line-Copy-13"></path>
                        <path d="M2.99999976,18 L20.0475111,0.952488422" id="Line-Copy-14"></path>
                        <path d="M6,17 L22,1" id="Line-Copy-15"></path>
                        <path d="M11.5,13.5 L13.5,11.5" id="Line-Copy-16"></path>
                        <path d="M8,17 L23,2" id="Line-Copy-17"></path>
                        <path d="M10,17 L23,4" id="Line-Copy-18"></path>
                        <path d="M12,17 L23,6" id="Line-Copy-19"></path>
                        <path d="M14,17 L23,8" id="Line-Copy-20"></path>
                        <path d="M15.5,17.5 L23,10" id="Line-Copy-21"></path>
                        <path d="M18,17 L22.5276928,12.4723074" id="Line-Copy-22"></path>
                        <path d="M19,18 L23,14" id="Line-Copy-26"></path>
                        <path d="M21,18 L23,16" id="Line-Copy-27"></path>
                    </g>
                    <g id="Cross-hatching-Copy-9" transform="translate(70.000000, 0.000000)">
                        <path d="M0,3 L2.5,0.5" id="Line"></path>
                        <path d="M0,5 L5,0" id="Line-Copy-6"></path>
                        <path d="M0,7 L6,1" id="Line-Copy-7"></path>
                        <path d="M0,9 L8,1" id="Line-Copy-8"></path>
                        <path d="M0,11 L10,1" id="Line-Copy-9"></path>
                        <path d="M0,13 L12,1" id="Line-Copy-10"></path>
                        <path d="M0,15 L14,1" id="Line-Copy-11"></path>
                        <path d="M0,17 L16,1" id="Line-Copy-12"></path>
                        <path d="M1.49242598,17.5075741 L18,1" id="Line-Copy-13"></path>
                        <path d="M2.99999976,18 L20.0475111,0.952488422" id="Line-Copy-14"></path>
                        <path d="M6,17 L22,1" id="Line-Copy-15"></path>
                        <path d="M11.5,13.5 L13.5,11.5" id="Line-Copy-16"></path>
                        <path d="M8,17 L23,2" id="Line-Copy-17"></path>
                        <path d="M10,17 L23,4" id="Line-Copy-18"></path>
                        <path d="M12,17 L23,6" id="Line-Copy-19"></path>
                        <path d="M14,17 L23,8" id="Line-Copy-20"></path>
                        <path d="M15.5,17.5 L23,10" id="Line-Copy-21"></path>
                        <path d="M18,17 L22.5276928,12.4723074" id="Line-Copy-22"></path>
                        <path d="M19,18 L23,14" id="Line-Copy-26"></path>
                        <path d="M21,18 L23,16" id="Line-Copy-27"></path>
                    </g>
                    <g id="Cross-hatching-Copy-10" transform="translate(70.000000, 18.000000)">
                        <path d="M0,3 L2.5,0.5" id="Line"></path>
                        <path d="M0,5 L5,0" id="Line-Copy-6"></path>
                        <path d="M0,7 L6,1" id="Line-Copy-7"></path>
                        <path d="M0,9 L8,1" id="Line-Copy-8"></path>
                        <path d="M0,11 L10,1" id="Line-Copy-9"></path>
                        <path d="M0,13 L12,1" id="Line-Copy-10"></path>
                        <path d="M0,15 L14,1" id="Line-Copy-11"></path>
                        <path d="M0,17 L16,1" id="Line-Copy-12"></path>
                        <path d="M1.49242598,17.5075741 L18,1" id="Line-Copy-13"></path>
                        <path d="M2.99999976,18 L20.0475111,0.952488422" id="Line-Copy-14"></path>
                        <path d="M6,17 L22,1" id="Line-Copy-15"></path>
                        <path d="M11.5,13.5 L13.5,11.5" id="Line-Copy-16"></path>
                        <path d="M8,17 L23,2" id="Line-Copy-17"></path>
                        <path d="M10,17 L23,4" id="Line-Copy-18"></path>
                        <path d="M12,17 L23,6" id="Line-Copy-19"></path>
                        <path d="M14,17 L23,8" id="Line-Copy-20"></path>
                        <path d="M15.5,17.5 L23,10" id="Line-Copy-21"></path>
                        <path d="M18,17 L22.5276928,12.4723074" id="Line-Copy-22"></path>
                        <path d="M19,18 L23,14" id="Line-Copy-26"></path>
                        <path d="M21,18 L23,16" id="Line-Copy-27"></path>
                    </g>
                    <g id="Cross-hatching-Copy-11" transform="translate(95.000000, 18.000000)">
                        <path d="M0,3 L2.5,0.5" id="Line"></path>
                        <path d="M0,5 L5,0" id="Line-Copy-6"></path>
                        <path d="M0,7 L6,1" id="Line-Copy-7"></path>
                        <path d="M0,9 L8,1" id="Line-Copy-8"></path>
                        <path d="M0,11 L10,1" id="Line-Copy-9"></path>
                        <path d="M0,13 L12,1" id="Line-Copy-10"></path>
                        <path d="M0,15 L14,1" id="Line-Copy-11"></path>
                        <path d="M0,17 L16,1" id="Line-Copy-12"></path>
                        <path d="M1.49242598,17.5075741 L18,1" id="Line-Copy-13"></path>
                        <path d="M2.99999976,18 L20.0475111,0.952488422" id="Line-Copy-14"></path>
                        <path d="M6,17 L22,1" id="Line-Copy-15"></path>
                        <path d="M11.5,13.5 L13.5,11.5" id="Line-Copy-16"></path>
                        <path d="M8,17 L23,2" id="Line-Copy-17"></path>
                        <path d="M10,17 L23,4" id="Line-Copy-18"></path>
                        <path d="M12,17 L23,6" id="Line-Copy-19"></path>
                        <path d="M14,17 L23,8" id="Line-Copy-20"></path>
                        <path d="M15.5,17.5 L23,10" id="Line-Copy-21"></path>
                        <path d="M18,17 L22.5276928,12.4723074" id="Line-Copy-22"></path>
                        <path d="M19,18 L23,14" id="Line-Copy-26"></path>
                        <path d="M21,18 L23,16" id="Line-Copy-27"></path>
                    </g>
                    <g id="Cross-hatching-Copy-12" transform="translate(95.000000, 0.000000)">
                        <path d="M0,3 L2.5,0.5" id="Line"></path>
                        <path d="M0,5 L5,0" id="Line-Copy-6"></path>
                        <path d="M0,7 L6,1" id="Line-Copy-7"></path>
                        <path d="M0,9 L8,1" id="Line-Copy-8"></path>
                        <path d="M0,11 L10,1" id="Line-Copy-9"></path>
                        <path d="M0,13 L12,1" id="Line-Copy-10"></path>
                        <path d="M0,15 L14,1" id="Line-Copy-11"></path>
                        <path d="M0,17 L16,1" id="Line-Copy-12"></path>
                        <path d="M1.49242598,17.5075741 L18,1" id="Line-Copy-13"></path>
                        <path d="M2.99999976,18 L20.0475111,0.952488422" id="Line-Copy-14"></path>
                        <path d="M6,17 L22,1" id="Line-Copy-15"></path>
                        <path d="M11.5,13.5 L13.5,11.5" id="Line-Copy-16"></path>
                        <path d="M8,17 L23,2" id="Line-Copy-17"></path>
                        <path d="M10,17 L23,4" id="Line-Copy-18"></path>
                        <path d="M12,17 L23,6" id="Line-Copy-19"></path>
                        <path d="M14,17 L23,8" id="Line-Copy-20"></path>
                        <path d="M15.5,17.5 L23,10" id="Line-Copy-21"></path>
                        <path d="M18,17 L22.5276928,12.4723074" id="Line-Copy-22"></path>
                        <path d="M19,18 L23,14" id="Line-Copy-26"></path>
                        <path d="M21,18 L23,16" id="Line-Copy-27"></path>
                    </g>
                    <g id="Cross-hatching-Copy-13" transform="translate(118.000000, 0.000000)">
                        <path d="M0,3 L2.5,0.5" id="Line"></path>
                        <path d="M0,5 L5,0" id="Line-Copy-6"></path>
                        <path d="M0,7 L6,1" id="Line-Copy-7"></path>
                        <path d="M0,9 L8,1" id="Line-Copy-8"></path>
                        <path d="M0,11 L10,1" id="Line-Copy-9"></path>
                        <path d="M0,13 L12,1" id="Line-Copy-10"></path>
                        <path d="M0,15 L14,1" id="Line-Copy-11"></path>
                        <path d="M0,17 L16,1" id="Line-Copy-12"></path>
                        <path d="M1.49242598,17.5075741 L18,1" id="Line-Copy-13"></path>
                        <path d="M2.99999976,18 L20.0475111,0.952488422" id="Line-Copy-14"></path>
                        <path d="M6,17 L22,1" id="Line-Copy-15"></path>
                        <path d="M11.5,13.5 L13.5,11.5" id="Line-Copy-16"></path>
                        <path d="M8,17 L23,2" id="Line-Copy-17"></path>
                        <path d="M10,17 L23,4" id="Line-Copy-18"></path>
                        <path d="M12,17 L23,6" id="Line-Copy-19"></path>
                        <path d="M14,17 L23,8" id="Line-Copy-20"></path>
                        <path d="M15.5,17.5 L23,10" id="Line-Copy-21"></path>
                        <path d="M18,17 L22.5276928,12.4723074" id="Line-Copy-22"></path>
                        <path d="M19,18 L23,14" id="Line-Copy-26"></path>
                        <path d="M21,18 L23,16" id="Line-Copy-27"></path>
                    </g>
                    <g id="Cross-hatching-Copy-14" transform="translate(119.000000, 18.000000)">
                        <path d="M0,3 L2.5,0.5" id="Line"></path>
                        <path d="M0,5 L5,0" id="Line-Copy-6"></path>
                        <path d="M0,7 L6,1" id="Line-Copy-7"></path>
                        <path d="M0,9 L8,1" id="Line-Copy-8"></path>
                        <path d="M0,11 L10,1" id="Line-Copy-9"></path>
                        <path d="M0,13 L12,1" id="Line-Copy-10"></path>
                        <path d="M0,15 L14,1" id="Line-Copy-11"></path>
                        <path d="M0,17 L16,1" id="Line-Copy-12"></path>
                        <path d="M1.49242598,17.5075741 L18,1" id="Line-Copy-13"></path>
                        <path d="M2.99999976,18 L20.0475111,0.952488422" id="Line-Copy-14"></path>
                        <path d="M6,17 L22,1" id="Line-Copy-15"></path>
                        <path d="M11.5,13.5 L13.5,11.5" id="Line-Copy-16"></path>
                        <path d="M8,17 L23,2" id="Line-Copy-17"></path>
                        <path d="M10,17 L23,4" id="Line-Copy-18"></path>
                        <path d="M12,17 L23,6" id="Line-Copy-19"></path>
                        <path d="M14,17 L23,8" id="Line-Copy-20"></path>
                        <path d="M15.5,17.5 L23,10" id="Line-Copy-21"></path>
                        <path d="M18,17 L22.5276928,12.4723074" id="Line-Copy-22"></path>
                        <path d="M19,18 L23,14" id="Line-Copy-26"></path>
                        <path d="M21,18 L23,16" id="Line-Copy-27"></path>
                    </g>
                    <g id="Cross-hatching-Copy" transform="translate(22.000000, 36.000000)">
                        <path d="M0.5,2.5 L2.5,0.5" id="Line"></path>
                        <path d="M1,4 L5,0" id="Line-Copy-6"></path>
                        <path d="M1,6 L6,1" id="Line-Copy-7"></path>
                        <path d="M1,8 L8,1" id="Line-Copy-8"></path>
                        <path d="M1,10 L10,1" id="Line-Copy-9"></path>
                        <path d="M1,12 L12,1" id="Line-Copy-10"></path>
                        <path d="M1,14 L14,1" id="Line-Copy-11"></path>
                        <path d="M1,16 L16,1" id="Line-Copy-12"></path>
                        <path d="M1.49242598,17.5075741 L18,1" id="Line-Copy-13"></path>
                        <path d="M2.99999976,18 L20.0475111,0.952488422" id="Line-Copy-14"></path>
                        <path d="M6,17 L22,1" id="Line-Copy-15"></path>
                        <path d="M11.5,13.5 L13.5,11.5" id="Line-Copy-16"></path>
                        <path d="M8,17 L23,2" id="Line-Copy-17"></path>
                        <path d="M10,17 L23,4" id="Line-Copy-18"></path>
                        <path d="M12,17 L23.5108643,5.48913556" id="Line-Copy-19"></path>
                        <path d="M14,17 L24.511898,6.48810196" id="Line-Copy-20"></path>
                        <path d="M15.5,17.5 L23,10" id="Line-Copy-21"></path>
                        <path d="M18,17 L24,11" id="Line-Copy-22"></path>
                        <path d="M19,18 L25,12" id="Line-Copy-24"></path>
                        <path d="M20,19 L26,13" id="Line-Copy-25"></path>
                    </g>
                    <g id="Cross-hatching-Copy-5" transform="translate(22.000000, 18.000000)">
                        <path d="M0.5,2.5 L2.5,0.5" id="Line"></path>
                        <path d="M1,4 L5,0" id="Line-Copy-6"></path>
                        <path d="M1,6 L6,1" id="Line-Copy-7"></path>
                        <path d="M1,8 L8,1" id="Line-Copy-8"></path>
                        <path d="M1,10 L10,1" id="Line-Copy-9"></path>
                        <path d="M1,12 L12,1" id="Line-Copy-10"></path>
                        <path d="M1,14 L14,1" id="Line-Copy-11"></path>
                        <path d="M1,16 L16,1" id="Line-Copy-12"></path>
                        <path d="M1.49242598,17.5075741 L18,1" id="Line-Copy-13"></path>
                        <path d="M2.99999976,18 L20.0475111,0.952488422" id="Line-Copy-14"></path>
                        <path d="M6,17 L22,1" id="Line-Copy-15"></path>
                        <path d="M11.5,13.5 L13.5,11.5" id="Line-Copy-16"></path>
                        <path d="M8,17 L23,2" id="Line-Copy-17"></path>
                        <path d="M10,17 L23,4" id="Line-Copy-18"></path>
                        <path d="M12,17 L23.5108643,5.48913556" id="Line-Copy-19"></path>
                        <path d="M14,17 L24.511898,6.48810196" id="Line-Copy-20"></path>
                        <path d="M15.5,17.5 L23,10" id="Line-Copy-21"></path>
                        <path d="M18,17 L24,11" id="Line-Copy-22"></path>
                        <path d="M19,18 L24,13" id="Line-Copy-24"></path>
                        <path d="M20,19 L24,15" id="Line-Copy-25"></path>
                    </g>
                    <g id="Cross-hatching-Copy-6" transform="translate(22.000000, 0.000000)">
                        <path d="M0.5,2.5 L2.5,0.5" id="Line"></path>
                        <path d="M1,4 L5,0" id="Line-Copy-6"></path>
                        <path d="M1,6 L6,1" id="Line-Copy-7"></path>
                        <path d="M1,8 L8,1" id="Line-Copy-8"></path>
                        <path d="M1,10 L10,1" id="Line-Copy-9"></path>
                        <path d="M1,12 L12,1" id="Line-Copy-10"></path>
                        <path d="M1,14 L14,1" id="Line-Copy-11"></path>
                        <path d="M1,16 L16,1" id="Line-Copy-12"></path>
                        <path d="M1.49242598,17.5075741 L18,1" id="Line-Copy-13"></path>
                        <path d="M2.99999976,18 L20.0475111,0.952488422" id="Line-Copy-14"></path>
                        <path d="M6,17 L22,1" id="Line-Copy-15"></path>
                        <path d="M11.5,13.5 L13.5,11.5" id="Line-Copy-16"></path>
                        <path d="M8,17 L23,2" id="Line-Copy-17"></path>
                        <path d="M10,17 L23,4" id="Line-Copy-18"></path>
                        <path d="M12,17 L23.5108643,5.48913556" id="Line-Copy-19"></path>
                        <path d="M14,17 L24.511898,6.48810196" id="Line-Copy-20"></path>
                        <path d="M15.5,17.5 L23,10" id="Line-Copy-21"></path>
                        <path d="M18,17 L24,11" id="Line-Copy-22"></path>
                        <path d="M19,18 L24,13" id="Line-Copy-24"></path>
                        <path d="M20,19 L24,15" id="Line-Copy-25"></path>
                    </g>
                    <g id="Cross-hatching-Copy-2" transform="translate(0.000000, 36.000000)">
                        <path d="M0.5,2.5 L2.5,0.5" id="Line"></path>
                        <path d="M1,4 L5,0" id="Line-Copy-6"></path>
                        <path d="M1,6 L6,1" id="Line-Copy-7"></path>
                        <path d="M1,8 L8,1" id="Line-Copy-8"></path>
                        <path d="M1,10 L10,1" id="Line-Copy-9"></path>
                        <path d="M1,12 L12,1" id="Line-Copy-10"></path>
                        <path d="M1,14 L14,1" id="Line-Copy-11"></path>
                        <path d="M1,16 L16,1" id="Line-Copy-12"></path>
                        <path d="M1.49242598,17.5075741 L18,1" id="Line-Copy-13"></path>
                        <path d="M2.99999976,18 L20.0475111,0.952488422" id="Line-Copy-14"></path>
                        <path d="M6,17 L21,2" id="Line-Copy-15"></path>
                        <path d="M11.5,13.5 L13.5,11.5" id="Line-Copy-16"></path>
                        <path d="M8,17 L21,4" id="Line-Copy-17"></path>
                        <path d="M10,17 L21,6" id="Line-Copy-18"></path>
                        <path d="M12,17 L21,8" id="Line-Copy-19"></path>
                        <path d="M14,17 L21,10" id="Line-Copy-20"></path>
                        <path d="M15.5,17.5 L21,12" id="Line-Copy-21"></path>
                        <path d="M18,17 L21,14" id="Line-Copy-22"></path>
                        <path d="M19,18 L22,15" id="Line-Copy-23"></path>
                    </g>
                    <g id="Cross-hatching-Copy-3" transform="translate(0.000000, 18.000000)">
                        <path d="M0.5,2.5 L2.5,0.5" id="Line"></path>
                        <path d="M1,4 L5,0" id="Line-Copy-6"></path>
                        <path d="M1,6 L6,1" id="Line-Copy-7"></path>
                        <path d="M1,8 L8,1" id="Line-Copy-8"></path>
                        <path d="M1,10 L10,1" id="Line-Copy-9"></path>
                        <path d="M1,12 L12,1" id="Line-Copy-10"></path>
                        <path d="M1,14 L14,1" id="Line-Copy-11"></path>
                        <path d="M1,16 L16,1" id="Line-Copy-12"></path>
                        <path d="M1.49242598,17.5075741 L18,1" id="Line-Copy-13"></path>
                        <path d="M2.99999976,18 L20.0475111,0.952488422" id="Line-Copy-14"></path>
                        <path d="M6,17 L21,2" id="Line-Copy-15"></path>
                        <path d="M11.5,13.5 L13.5,11.5" id="Line-Copy-16"></path>
                        <path d="M8,17 L21,4" id="Line-Copy-17"></path>
                        <path d="M10,17 L21,6" id="Line-Copy-18"></path>
                        <path d="M12,17 L21,8" id="Line-Copy-19"></path>
                        <path d="M14,17 L21,10" id="Line-Copy-20"></path>
                        <path d="M15.5,17.5 L21,12" id="Line-Copy-21"></path>
                        <path d="M18,17 L21,14" id="Line-Copy-22"></path>
                        <path d="M19,18 L22,15" id="Line-Copy-23"></path>
                    </g>
                    <g id="Cross-hatching-Copy-4">
                        <path d="M0.5,2.5 L2.5,0.5" id="Line"></path>
                        <path d="M1,4 L5,0" id="Line-Copy-6"></path>
                        <path d="M1,6 L6,1" id="Line-Copy-7"></path>
                        <path d="M1,8 L8,1" id="Line-Copy-8"></path>
                        <path d="M1,10 L10,1" id="Line-Copy-9"></path>
                        <path d="M1,12 L12,1" id="Line-Copy-10"></path>
                        <path d="M1,14 L14,1" id="Line-Copy-11"></path>
                        <path d="M1,16 L16,1" id="Line-Copy-12"></path>
                        <path d="M1.49242598,17.5075741 L18,1" id="Line-Copy-13"></path>
                        <path d="M2.99999976,18 L20.0475111,0.952488422" id="Line-Copy-14"></path>
                        <path d="M6,17 L21,2" id="Line-Copy-15"></path>
                        <path d="M11.5,13.5 L13.5,11.5" id="Line-Copy-16"></path>
                        <path d="M8,17 L21,4" id="Line-Copy-17"></path>
                        <path d="M10,17 L21,6" id="Line-Copy-18"></path>
                        <path d="M12,17 L21,8" id="Line-Copy-19"></path>
                        <path d="M14,17 L21,10" id="Line-Copy-20"></path>
                        <path d="M15.5,17.5 L21,12" id="Line-Copy-21"></path>
                        <path d="M18,17 L21,14" id="Line-Copy-22"></path>
                        <path d="M19,18 L22,15" id="Line-Copy-23"></path>
                    </g>
                    <g id="Cross-hatching-Copy-15" transform="translate(141.000000, 0.000000)">
                        <path d="M0.5,2.5 L2.5,0.5" id="Line"></path>
                        <path d="M1,4 L5,0" id="Line-Copy-6"></path>
                        <path d="M1,6 L6,1" id="Line-Copy-7"></path>
                        <path d="M1,8 L8,1" id="Line-Copy-8"></path>
                        <path d="M1,10 L10,1" id="Line-Copy-9"></path>
                        <path d="M1,12 L12,1" id="Line-Copy-10"></path>
                        <path d="M1,14 L14,1" id="Line-Copy-11"></path>
                        <path d="M1,16 L16,1" id="Line-Copy-12"></path>
                        <path d="M1.49242598,17.5075741 L18,1" id="Line-Copy-13"></path>
                        <path d="M2.99999976,18 L20.0475111,0.952488422" id="Line-Copy-14"></path>
                        <path d="M6,17 L21,2" id="Line-Copy-15"></path>
                        <path d="M11.5,13.5 L13.5,11.5" id="Line-Copy-16"></path>
                        <path d="M8,17 L21,4" id="Line-Copy-17"></path>
                        <path d="M10,17 L21,6" id="Line-Copy-18"></path>
                        <path d="M12,17 L21,8" id="Line-Copy-19"></path>
                        <path d="M14,17 L21,10" id="Line-Copy-20"></path>
                        <path d="M15.5,17.5 L21,12" id="Line-Copy-21"></path>
                        <path d="M18,17 L21,14" id="Line-Copy-22"></path>
                        <path d="M19,18 L22,15" id="Line-Copy-23"></path>
                    </g>
                    <g id="Cross-hatching-Copy-16" transform="translate(141.000000, 18.000000)">
                        <path d="M0.5,2.5 L2.5,0.5" id="Line"></path>
                        <path d="M1,4 L5,0" id="Line-Copy-6"></path>
                        <path d="M1,6 L6,1" id="Line-Copy-7"></path>
                        <path d="M1,8 L8,1" id="Line-Copy-8"></path>
                        <path d="M1,10 L10,1" id="Line-Copy-9"></path>
                        <path d="M1,12 L12,1" id="Line-Copy-10"></path>
                        <path d="M1,14 L14,1" id="Line-Copy-11"></path>
                        <path d="M1,16 L16,1" id="Line-Copy-12"></path>
                        <path d="M1.49242598,17.5075741 L18,1" id="Line-Copy-13"></path>
                        <path d="M2.99999976,18 L20.0475111,0.952488422" id="Line-Copy-14"></path>
                        <path d="M6,17 L21,2" id="Line-Copy-15"></path>
                        <path d="M11.5,13.5 L13.5,11.5" id="Line-Copy-16"></path>
                        <path d="M8,17 L21,4" id="Line-Copy-17"></path>
                        <path d="M10,17 L21,6" id="Line-Copy-18"></path>
                        <path d="M12,17 L21,8" id="Line-Copy-19"></path>
                        <path d="M14,17 L21,10" id="Line-Copy-20"></path>
                        <path d="M15.5,17.5 L21,12" id="Line-Copy-21"></path>
                        <path d="M18,17 L21,14" id="Line-Copy-22"></path>
                        <path d="M19,19 L22,16" id="Line-Copy-23"></path>
                    </g>
                </g>
                <use id="Combined-Shape" stroke="#FFFFFF" mask="url(#mask-2)" stroke-width="6" xlink:href="#path-1"></use>
                <g id="Horizontal-lines" transform="translate(0.000000, 29.000000)" stroke="#FFFFFF" stroke-width="2">
                    <path d="M0.159999847,1 L163.460007,1 L0.159999847,1 Z" id="Path-1"></path>
                    <path d="M0.159999847,19 L163.460007,19 L0.159999847,19 Z" id="Path-1-Copy"></path>
                    <path d="M0.159999847,37 L163.460007,37 L0.159999847,37 Z" id="Path-1-Copy-2"></path>
                    <path d="M0.159999847,55 L163.460007,55 L0.159999847,55 Z" id="Path-1-Copy-3"></path>
                    <path d="M0.159999847,73 L163.460007,73 L0.159999847,73 Z" id="Path-1-Copy-4"></path>
                </g>
                <g id="Vertical-lines" transform="translate(21.000000, 30.000000)" stroke="#FFFFFF" stroke-width="2" stroke-linecap="square">
                    <path d="M1,0.5 L1,90.0223465" id="Line"></path>
                    <path d="M25,0.408256881 L25,88.5955244" id="Line-Copy"></path>
                    <path d="M49,0.408256881 L49,88.5955244" id="Line-Copy-2"></path>
                    <path d="M73,0.408256881 L73,88.5955244" id="Line-Copy-3"></path>
                    <path d="M97,0.408256881 L97,88.5955244" id="Line-Copy-4"></path>
                    <path d="M121,0.408256881 L121,88.5955244" id="Line-Copy-5"></path>
                </g>
                <g id="Bindings" transform="translate(19.000000, 0.000000)"></g>
                <g id="Direction-indidcator" transform="translate(24.000000, 69.000000)">
                    <circle id="Oval-1" fill="#F68657" cx="58" cy="6" r="6"></circle>
                    <path d="M52.5,5.5 L10.5,5.5" id="Line" stroke="#F68657" stroke-width="3" stroke-linecap="square"></path>
                    <polygon id="Triangle-1" fill="#F68657" points="9 1 9 10 0 5.5"></polygon>
                </g>
                <use id="Rectangle-4" stroke="#FFFFFF" mask="url(#mask-4)" stroke-width="6" fill="#FFFFFF" xlink:href="#path-3"></use>
            </g>
        </g>
    </g>
</svg>